<svg version="1.1" xmlns="http://www.w3.org/2000/svg" xmlns:xlink="http://www.w3.org/1999/xlink" width="28" height="28" viewBox="0,0,256,256"><g transform="translate(-91.42857,-91.42857) scale(1.71429,1.71429)"><g fill="none" fill-rule="none" stroke="none" stroke-width="1" stroke-linecap="butt" stroke-linejoin="miter" stroke-miterlimit="10" stroke-dasharray="" stroke-dashoffset="0" font-family="none" font-weight="none" font-size="none" text-anchor="none" style="mix-blend-mode: normal"><g transform="translate(0,27.42857) scale(9.14286,9.14286)"><g fill="#2be080" fill-rule="nonzero"><circle cx="14" cy="11" r="8"></circle></g><path d="M14,17c3.3137,0 6,-2.6863 6,-6c0,-3.31371 -2.6863,-6 -6,-6c-3.3137,0 -6,2.68629 -6,6c0,3.3137 2.6863,6 6,6zM14,19c4.4183,0 8,-3.5817 8,-8c0,-4.41828 -3.5817,-8 -8,-8c-4.41828,0 -8,3.58172 -8,8c0,4.4183 3.58172,8 8,8z" fill="#ffffff" fill-rule="evenodd"></path></g></g></g></svg>